<svg viewBox="0 0 280 157" xmlns="http://www.w3.org/2000/svg" width="280" height="157">
  <defs>
    <linearGradient id="bg-74" x1="0%" y1="0%" x2="100%" y2="100%">
      <stop offset="0%" style="stop-color:#dbeafe;stop-opacity:1"/>
      <stop offset="100%" style="stop-color:#dbeafe;stop-opacity:0.6"/>
    </linearGradient>
  </defs>

  <!-- Background -->
  <rect width="280" height="157" fill="url(#bg-74)" rx="8"/>

  <!-- Pattern overlay -->
  <circle cx="240" cy="20" r="60" fill="#2563eb" opacity="0.06"/>
  <circle cx="20" cy="140" r="50" fill="#2563eb" opacity="0.05"/>

  <!-- Top bar -->
  <rect width="280" height="4" fill="#2563eb" rx="0" opacity="0.8"/>

  <!-- Icon circle -->
  <circle cx="34" cy="38" r="20" fill="#2563eb" opacity="0.15"/>
  <g transform="translate(22,26) scale(1)" color="#2563eb">
    <svg width="24" height="24" viewBox="0 0 24 24"><path d="M14 2H6a2 2 0 0 0-2 2v16a2 2 0 0 0 2 2h12a2 2 0 0 0 2-2V8z" stroke="currentColor" stroke-width="2" fill="none"/><polyline points="14 2 14 8 20 8" stroke="currentColor" stroke-width="2" fill="none"/><line x1="16" y1="13" x2="8" y2="13" stroke="currentColor" stroke-width="2"/><line x1="16" y1="17" x2="8" y2="17" stroke="currentColor" stroke-width="2"/><polyline points="10 9 9 9 8 9" stroke="currentColor" stroke-width="2"/></svg>
  </g>

  <!-- Category pill -->
  <rect x="62" y="28" width="47" height="20" rx="10" fill="#2563eb" opacity="0.15"/>
  <text x="85.5" y="42" text-anchor="middle" font-family="Inter,Arial,sans-serif" font-size="10" font-weight="700" fill="#1d4ed8" letter-spacing="0.3">NOTES</text>

  <!-- Title -->
  <text x="14" y="118" font-family="Inter,Arial,sans-serif" font-size="13" font-weight="700" fill="#0f172a">AFCAT Quantitative</text>
  <text x="14" y="136" font-family="Inter,Arial,sans-serif" font-size="13" font-weight="700" fill="#0f172a">Aptitude Notes Free</text>
  <text x="14" y="154" font-family="Inter,Arial,sans-serif" font-size="13" font-weight="700" fill="#0f172a">Download</text>

  <!-- Divider -->
  <line x1="14" y1="178" x2="266" y2="178" stroke="#e2e8f0" stroke-width="1"/>

  <!-- Subject + Exam tags -->
  <rect x="14" y="186" width="146" height="16" rx="8" fill="#2563eb" opacity="0.12"/>
  <text x="87" y="198" text-anchor="middle" font-family="Inter,Arial,sans-serif" font-size="9" font-weight="600" fill="#1d4ed8">Quantitative Aptitu…</text>

  <rect x="168" y="186" width="46" height="16" rx="8" fill="#2563eb" opacity="0.08"/>
  <text x="191" y="198" text-anchor="middle" font-family="Inter,Arial,sans-serif" font-size="9" font-weight="600" fill="#1d4ed8" opacity="0.8">AFCAT</text>

  <!-- Footer brand -->
  <text x="14" y="150" font-family="Inter,Arial,sans-serif" font-size="9" fill="#94a3b8" font-weight="500">Academic Halt • Free Study Materials</text>
  <text x="266" y="150" text-anchor="end" font-family="Inter,Arial,sans-serif" font-size="9" fill="#2563eb" font-weight="700">PDF</text>
</svg>