<svg viewBox="0 0 280 157" xmlns="http://www.w3.org/2000/svg" width="280" height="157">
  <defs>
    <linearGradient id="bg-study-guides" x1="0%" y1="0%" x2="100%" y2="100%">
      <stop offset="0%" style="stop-color:#cffafe;stop-opacity:1"/>
      <stop offset="100%" style="stop-color:#cffafe;stop-opacity:0.6"/>
    </linearGradient>
  </defs>

  <!-- Background -->
  <rect width="280" height="157" fill="url(#bg-study-guides)" rx="8"/>

  <!-- Pattern overlay -->
  <circle cx="240" cy="20" r="60" fill="#0891b2" opacity="0.06"/>
  <circle cx="20" cy="140" r="50" fill="#0891b2" opacity="0.05"/>

  <!-- Top bar -->
  <rect width="280" height="4" fill="#0891b2" rx="0" opacity="0.8"/>

  <!-- Icon circle -->
  <circle cx="34" cy="38" r="20" fill="#0891b2" opacity="0.15"/>
  <g transform="translate(22,26) scale(1)" color="#0891b2">
    <svg width="24" height="24" viewBox="0 0 24 24"><path d="M2 3h6a4 4 0 0 1 4 4v14a3 3 0 0 0-3-3H2z" stroke="currentColor" stroke-width="2" fill="none"/><path d="M22 3h-6a4 4 0 0 0-4 4v14a3 3 0 0 1 3-3h7z" stroke="currentColor" stroke-width="2" fill="none"/></svg>
  </g>

  <!-- Category pill -->
  <rect x="62" y="28" width="96" height="20" rx="10" fill="#0891b2" opacity="0.15"/>
  <text x="110" y="42" text-anchor="middle" font-family="Inter,Arial,sans-serif" font-size="10" font-weight="700" fill="#0e7490" letter-spacing="0.3">STUDY GUIDES</text>

  <!-- Title -->
  <text x="14" y="128" font-family="Inter,Arial,sans-serif" font-size="13" font-weight="700" fill="#0f172a">Study Guides - Free</text>
  <text x="14" y="146" font-family="Inter,Arial,sans-serif" font-size="13" font-weight="700" fill="#0f172a">Download</text>

  <!-- Divider -->
  <line x1="14" y1="170" x2="266" y2="170" stroke="#e2e8f0" stroke-width="1"/>

  <!-- Subject + Exam tags -->
  <rect x="14" y="178" width="94" height="16" rx="8" fill="#0891b2" opacity="0.12"/>
  <text x="61" y="190" text-anchor="middle" font-family="Inter,Arial,sans-serif" font-size="9" font-weight="600" fill="#0e7490">All Subjects</text>

  <rect x="116" y="178" width="70" height="16" rx="8" fill="#0891b2" opacity="0.08"/>
  <text x="151" y="190" text-anchor="middle" font-family="Inter,Arial,sans-serif" font-size="9" font-weight="600" fill="#0e7490" opacity="0.8">All Exams</text>

  <!-- Footer brand -->
  <text x="14" y="150" font-family="Inter,Arial,sans-serif" font-size="9" fill="#94a3b8" font-weight="500">Academic Halt • Free Study Materials</text>
  <text x="266" y="150" text-anchor="end" font-family="Inter,Arial,sans-serif" font-size="9" fill="#0891b2" font-weight="700">PDF</text>
</svg>